<?xml version="1.0" encoding="UTF-8"?><svg id="Layer_2" xmlns="http://www.w3.org/2000/svg" viewBox="0 0 39.7 40.05"><defs><style>.cls-1{fill:#705742;}</style></defs><g id="Layer_1-2"><path class="cls-1" d="M39.7,1.12C27.93,5.33,15.02,4.4,2.98,1.85c0,0,.83-1.09,.83-1.09,6.17,11.36,7.11,26.3,.1,37.52,0,0-1.25-1.45-1.25-1.45,2.76-1.25,5.14-3.19,6.78-5.71,2.85-4.73,5.14-12.04,1.64-16.92-1.63-2.15-4.89-3.59-7.34-2.09-2.39,1.35-3.35,5.1-.76,6.76,6.24,3.51,10.99-3.78,16.49-5.76,2.92-.99,7.21-.47,8.35,2.8-1.31-3.1-5.41-3.35-8.17-2.3-4.35,1.75-7.36,6.64-12.37,7.23C.55,21.91-2.79,14.88,2.9,10.8c5.02-3.09,11,1.91,11.54,7.07,.67,4.99-.84,10-3.41,14.29-1.8,2.84-4.51,5.11-7.54,6.48l-3.12,1.41C9.29,28.37,8.61,12.54,1.73,0c0,0,1.59,.38,1.59,.38,11.88,2.85,24.47,4.13,36.39,.73h0Z"/></g></svg>