<?xml version="1.0" encoding="UTF-8"?><svg id="Layer_2" xmlns="http://www.w3.org/2000/svg" viewBox="0 0 114.83 118.63"><defs><style>.cls-1{fill:#a37d42;}.cls-2{fill:#705842;}</style></defs><g id="Logo_Final"><g><path d="M36.25,52.35l-.36,1.83h-9.37v-17.64l1.93-.36v16.16h7.79Z"/><path d="M45.46,54.18l-.08-.76c-.74,.64-1.71,1.02-2.8,1.02-2.37,0-4.2-1.81-4.2-4.1s1.83-4.1,4.2-4.1c1.12,0,1.98,.38,2.67,.97v-.69c0-1.45-.61-2.19-2.42-2.19-.97,0-1.86,.2-2.72,.51l.33-1.65c.84-.28,1.63-.41,2.47-.41,2.72,0,4.12,1.32,4.12,3.59v5.65l.08,2.16h-1.65Zm-.05-3.84c0-1.45-1.2-2.57-2.67-2.57s-2.65,1.12-2.65,2.57,1.17,2.57,2.65,2.57,2.67-1.15,2.67-2.57Z"/><path d="M59.99,50.72l.69,1.63c-1.4,1.37-3.11,2.09-4.94,2.09-3.46,0-5.96-2.57-5.96-5.83s2.6-5.88,5.9-5.88c2.75,0,4.86,1.81,5.27,4.63l-9.09,2.95c.61,1.48,2.04,2.5,3.89,2.5,1.58,0,3-.69,4.23-2.09Zm-8.45-2.11v.1l7.33-2.37c-.48-1.22-1.73-1.99-3.21-1.99-2.32,0-4.12,1.88-4.12,4.25Z"/><path d="M65.92,44.61v6.36c0,1.15,.64,1.76,1.63,1.76,.56,0,1.25-.18,1.63-.36v1.65c-.38,.18-1.07,.36-1.81,.36-1.96,0-3.23-1.22-3.23-3.28v-6.49h-1.65l.31-1.63h1.35v-2.47l1.78-1.07v3.54h3.26v1.63h-3.26Z"/><path d="M81.39,42.81v11.4h-1.68v-1.37c-.84,1.02-2.06,1.6-3.51,1.6-2.52,0-4.38-1.71-4.38-4.71v-6.59l1.78-.33v6.77c0,2.09,1.17,3.18,2.85,3.18,1.83,0,3.16-1.32,3.16-3.44v-6.18l1.78-.33Z"/><path d="M84.47,53.27l.31-1.63c1.12,.79,2.14,1.22,3.26,1.22s1.91-.66,1.91-1.76c0-.76-.38-1.32-2.06-1.86l-.46-.15c-1.76-.59-2.67-1.76-2.67-3.28,0-1.76,1.4-3.08,3.39-3.08,.99,0,2.09,.33,3.05,.87l-.33,1.63c-1.02-.64-2.04-.92-2.72-.92-1.09,0-1.71,.64-1.71,1.48,0,.71,.38,1.22,1.86,1.73l.46,.15c1.88,.61,2.93,1.78,2.93,3.44,0,1.96-1.48,3.33-3.64,3.33-1.25,0-2.55-.46-3.56-1.17Z"/></g><path d="M60.06,81.37l-.08-.76c-.74,.64-1.71,1.02-2.8,1.02-2.37,0-4.2-1.81-4.2-4.1s1.83-4.1,4.2-4.1c1.12,0,1.99,.38,2.67,.97v-.69c0-1.45-.61-2.19-2.42-2.19-.97,0-1.86,.2-2.72,.51l.33-1.65c.84-.28,1.63-.41,2.47-.41,2.72,0,4.12,1.32,4.12,3.59v5.65l.08,2.16h-1.65Zm-.05-3.84c0-1.45-1.2-2.57-2.67-2.57s-2.65,1.12-2.65,2.57,1.17,2.57,2.65,2.57,2.67-1.15,2.67-2.57Z"/><path d="M67.72,67.24v2.93h2.54v1.63h-2.54v9.57h-1.78v-9.57h-1.58l.31-1.63h1.27v-3.05c0-2.72,1.58-4.28,4.17-4.28h.28v1.68h-.28c-1.53,0-2.39,.92-2.39,2.72Z"/><path d="M81.85,77.91l.69,1.63c-1.4,1.37-3.1,2.09-4.94,2.09-3.46,0-5.96-2.57-5.96-5.83s2.6-5.88,5.91-5.88c2.75,0,4.86,1.81,5.27,4.63l-9.09,2.95c.61,1.48,2.04,2.5,3.89,2.5,1.58,0,3-.69,4.23-2.09Zm-8.45-2.11v.1l7.33-2.37c-.48-1.22-1.73-1.99-3.21-1.99-2.32,0-4.12,1.88-4.12,4.25Z"/><path d="M49.88,81.62c-6.59,0-12.36-3.1-14.02-7.53-.82-2.2-.58-4.6,.67-6.59,1.14-1.83,3.16-3.38,5.69-4.38,2.21-.87,4.85-1.34,7.65-1.35v1.7c-2.58,.01-5.01,.44-7.03,1.23-2.19,.86-3.92,2.18-4.87,3.7-.96,1.54-1.15,3.4-.52,5.09,1.42,3.79,6.53,6.43,12.42,6.43v1.7Z"/><path class="cls-2" d="M106.07,33.37c13.01,19.34,11.05,46.6-3.35,64.76-15.05,18.7-42.18,25.09-64.56,17.17-15.14-5.38-27.1-17.8-33.33-32.43-6.13-14.67-6.66-31.86-.15-46.51C18.17,6.55,53.27-8.69,83.54,5.16c13.95,6.33,25.58,17.62,31.3,31.86-6.85-13.16-18.83-23.45-32.61-28.69C54.09-2.77,22.58,11.64,10.75,39c-8.45,19.68-2.68,43.65,12.14,58.71,15.1,15.49,39.66,18.63,59.13,10.01,27.86-11.9,38.23-48.28,24.05-74.35h0Z"/><path class="cls-1" d="M89.82,23.65c16.16,11.79,22.85,34.32,16.73,53.27-8.52,26.1-41.11,40.71-66.15,29.13-18.6-8.24-31.86-27.94-30.81-48.48C11.18,29.67,34.44,6.74,62.81,8.3c13.17,.71,26.1,6.03,35.24,15.59-9.54-8.75-22.42-13.57-35.3-13.63-26.68-.52-48.17,21.21-49.37,47.47-.81,18.97,11.54,37.02,28.61,44.75,17.38,8.01,38.72,2.78,51.99-10.6,18.95-18.57,15.95-51.66-4.16-68.24h0Z"/><path class="cls-1" d="M72.56,68.43c.79-2.93,4.86-3.34,7.02-4.32,2.59-.9,4.2-3.09,6.93-3.86-2.05,4.9-4.77,7.34-10.11,7.4-1.33,.08-2.5,.06-3.84,.79h0Z"/><path class="cls-1" d="M72.56,68.43c.4-3.01,3.93-4.4,6.57-4.9,2.67-.49,4.73-2.57,7.39-3.28-2.17,1.83-4.15,4.14-7.07,4.7-2.49,.48-5.5,1.13-6.88,3.48h0Z"/></g></svg>