<?xml version="1.0" encoding="UTF-8"?><svg id="Layer_2" xmlns="http://www.w3.org/2000/svg" viewBox="0 0 151.35 128.08"><defs><style>.cls-1{fill:#d8b582;}.cls-2{fill:#ddd2bc;}.cls-3{fill:#42371d;}.cls-4{fill:#a37d42;}.cls-5{fill:#705842;}</style></defs><g id="Logo_Final"><g><path d="M29.33,62.64l-.36,1.83h-9.37v-17.64l1.93-.36v16.16h7.79Z"/><path d="M38.54,64.47l-.08-.76c-.74,.64-1.71,1.02-2.8,1.02-2.37,0-4.2-1.81-4.2-4.1s1.83-4.1,4.2-4.1c1.12,0,1.98,.38,2.67,.97v-.69c0-1.45-.61-2.19-2.42-2.19-.97,0-1.86,.2-2.72,.51l.33-1.65c.84-.28,1.63-.41,2.47-.41,2.72,0,4.12,1.32,4.12,3.59v5.65l.08,2.16h-1.65Zm-.05-3.84c0-1.45-1.2-2.57-2.67-2.57s-2.65,1.12-2.65,2.57,1.17,2.57,2.65,2.57,2.67-1.15,2.67-2.57Z"/><path d="M53.07,61.01l.69,1.63c-1.4,1.37-3.11,2.09-4.94,2.09-3.46,0-5.96-2.57-5.96-5.83s2.6-5.88,5.9-5.88c2.75,0,4.86,1.81,5.27,4.63l-9.09,2.95c.61,1.48,2.04,2.5,3.89,2.5,1.58,0,3-.69,4.23-2.09Zm-8.45-2.11v.1l7.33-2.37c-.48-1.22-1.73-1.99-3.21-1.99-2.32,0-4.12,1.88-4.12,4.25Z"/><path d="M59,54.9v6.36c0,1.15,.64,1.76,1.63,1.76,.56,0,1.25-.18,1.63-.36v1.65c-.38,.18-1.07,.36-1.81,.36-1.96,0-3.23-1.22-3.23-3.28v-6.49h-1.65l.31-1.63h1.35v-2.47l1.78-1.07v3.54h3.26v1.63h-3.26Z"/><path d="M74.48,53.1v11.4h-1.68v-1.37c-.84,1.02-2.06,1.6-3.51,1.6-2.52,0-4.38-1.71-4.38-4.71v-6.59l1.78-.33v6.77c0,2.09,1.17,3.18,2.85,3.18,1.83,0,3.16-1.32,3.16-3.44v-6.18l1.78-.33Z"/><path d="M77.55,63.56l.31-1.63c1.12,.79,2.14,1.22,3.26,1.22s1.91-.66,1.91-1.76c0-.76-.38-1.32-2.06-1.86l-.46-.15c-1.76-.59-2.67-1.76-2.67-3.28,0-1.76,1.4-3.08,3.39-3.08,.99,0,2.09,.33,3.05,.87l-.33,1.63c-1.02-.64-2.04-.92-2.72-.92-1.09,0-1.71,.64-1.71,1.48,0,.71,.38,1.22,1.86,1.73l.46,.15c1.88,.61,2.93,1.78,2.93,3.44,0,1.96-1.48,3.33-3.64,3.33-1.25,0-2.55-.46-3.56-1.17Z"/><path d="M115.86,64.47l-.08-.76c-.74,.64-1.71,1.02-2.8,1.02-2.37,0-4.2-1.81-4.2-4.1s1.83-4.1,4.2-4.1c1.12,0,1.99,.38,2.67,.97v-.69c0-1.45-.61-2.19-2.42-2.19-.97,0-1.86,.2-2.72,.51l.33-1.65c.84-.28,1.63-.41,2.47-.41,2.72,0,4.12,1.32,4.12,3.59v5.65l.08,2.16h-1.65Zm-.05-3.84c0-1.45-1.2-2.57-2.67-2.57s-2.65,1.12-2.65,2.57,1.17,2.57,2.65,2.57,2.67-1.15,2.67-2.57Z"/><path d="M123.51,50.35v2.93h2.54v1.63h-2.54v9.57h-1.78v-9.57h-1.58l.31-1.63h1.27v-3.05c0-2.72,1.58-4.28,4.17-4.28h.28v1.68h-.28c-1.53,0-2.39,.92-2.39,2.72Z"/><path d="M137.64,61.01l.69,1.63c-1.4,1.37-3.1,2.09-4.94,2.09-3.46,0-5.96-2.57-5.96-5.83s2.6-5.88,5.91-5.88c2.75,0,4.86,1.81,5.27,4.63l-9.09,2.95c.61,1.48,2.04,2.5,3.89,2.5,1.58,0,3-.69,4.23-2.09Zm-8.45-2.11v.1l7.33-2.37c-.48-1.22-1.73-1.99-3.21-1.99-2.32,0-4.12,1.88-4.12,4.25Zm2.06-7.66l-.84-1.45,5.12-3.1,.97,1.6-5.24,2.95Z"/></g><path d="M105.67,64.73c-6.59,0-12.36-3.1-14.02-7.53-.82-2.19-.58-4.6,.67-6.59,1.14-1.83,3.17-3.38,5.69-4.38,2.21-.87,4.85-1.34,7.65-1.35v1.7c-2.58,.01-5.01,.44-7.03,1.23-2.19,.86-3.92,2.17-4.87,3.7-.96,1.54-1.15,3.4-.52,5.09,1.42,3.79,6.53,6.43,12.42,6.43v1.7Z"/><path class="cls-5" d="M118.02,42.17c4.48-1.55,9.08-2.25,13.36-3.8,4.04-1.41,7.94-3.33,11.72-5.32,.81-.43,1.74-.8,1.5-1.82-.94-2.83-3.88-5.02-6.22-6.99C119.83,9.68,98.3,1.8,74.56,3.67c-17.64,1.62-36.76,7.01-49.98,19.29C11.78,34.91,2.81,52.95,6.2,70.66c3.58,17.19,15.89,32.72,31.53,40.56,24.22,11.78,53.45,12.99,78.49,2.92,4.83-1.88,9.49-4.24,13.88-6.98,1.23-.85,2.4-1.76,3.56-2.73,3.42-2.88,6.73-6.04,9.55-9.5,1.88-2.41,3.97-5.07,4.35-8,.06-.91-.22-1.24-.76-2-1.25-1.61-2.99-3.16-4.72-4.61-5.21-4.46-11.25-7.86-17.67-10.22-2.14-.81-4.36-1.49-6.59-2.3,2.37-.02,4.72,.24,7.04,.74,6.96,1.65,13.41,5.11,19.14,9.31,2.81,2.29,7.29,4.91,7.35,9.14-.36,8.11-10.98,18.78-16.97,23.82-24.46,17.83-57.98,21.87-86.43,12.07-14.36-4.75-26.4-12.4-35.38-24.68C3.92,86.58-1.81,71.58,.52,56.89,3.59,37.65,16.46,20.65,33.31,11.25,54.38,.47,79.51-2.95,102.58,2.68c9.2,2.3,18.06,6.1,25.99,11.24,4.51,3.06,21.72,12.99,18.39,19.41-.64,1.15-1.63,1.65-2.62,2.14-.44,.22-1.89,.93-2.37,1.16-7.36,3.78-15.69,5.86-23.95,5.54h0Z"/><g><path class="cls-3" d="M69.87,96.26c3.66,1.31,7.22,1.42,11.1,.11,3.19-.95,6.74-.53,9.41,1.2,.22,.14,.51-.03,.48-.29-1.23-9.84-16.07-15.1-22.54-6.57-.94,1.04-1.94,2.17-2.53,3.48-.07,.16,0,.34,.16,.41,1.3,.61,2.6,1.19,3.92,1.65Z"/><path class="cls-3" d="M85.04,97.75c-2.7,.14-5.08,1.53-7.86,1.87-4.3,.44-8.15-1.22-11.38-3.74-.2-.15-.47-.02-.49,.23-.11,1.51,.41,3.25,2.04,5.35,4.89,8.8,19.81,6.5,23.44-2.5,.07-.17-.02-.36-.19-.42-1.81-.65-3.69-.92-5.57-.79Z"/></g><g><path class="cls-5" d="M44,89.45c-2.35-2.73-5.13-4.47-8.78-5.23-2.94-.73-5.58-2.7-6.96-5.3-.11-.21-.42-.22-.51,0-3.26,8.31,6.26,19.33,15.09,15.61,1.2-.38,2.48-.81,3.51-1.57,.12-.09,.14-.27,.05-.4-.77-1.09-1.55-2.14-2.41-3.12Z"/><path class="cls-5" d="M32.59,81.25c2.21,1.14,4.7,1.14,7.06,2.17,3.61,1.64,5.95,4.73,7.43,8.22,.09,.21,.37,.24,.49,.05,.74-1.14,1.08-2.75,.69-5.16-.09-9.19-12.94-14.29-19.71-8.89-.12,.1-.14,.29-.03,.42,1.16,1.35,2.54,2.43,4.08,3.2Z"/></g><g><path class="cls-4" d="M37.92,35.99c3.24-.94,5.82-2.55,7.93-5.17,1.79-2.08,4.52-3.5,7.27-3.71,.22-.02,.35-.26,.2-.4-5.71-5.38-18.82-1.57-19.22,6.66-.16,1.08-.31,2.23-.08,3.3,.03,.13,.17,.2,.31,.18,1.22-.24,2.43-.5,3.59-.85Z"/><path class="cls-4" d="M49.42,29.74c-1.84,1.36-2.85,3.33-4.66,4.84-2.83,2.3-6.38,3.11-9.91,3.1-.21,0-.35,.21-.24,.37,.66,.97,1.89,1.78,4.08,2.28,7.79,3.03,17.24-5.41,15.4-12.58-.03-.13-.19-.21-.34-.17-1.6,.46-3.07,1.18-4.34,2.15Z"/></g><g><path class="cls-1" d="M71.88,22.21c3.08,.64,5.89,.47,8.74-.7,2.36-.87,5.21-.83,7.58,.17,.19,.08,.4-.06,.33-.23-2.45-6.63-14.9-9.2-18.71-2.92-.58,.78-1.2,1.62-1.46,2.55-.03,.11,.06,.23,.19,.27,1.12,.33,2.22,.63,3.33,.85Z"/><path class="cls-1" d="M84.03,22.18c-2.1,.28-3.76,1.4-5.9,1.82-3.31,.6-6.59-.26-9.5-1.77-.18-.09-.38,.02-.35,.19,.14,1.04,.81,2.19,2.41,3.51,5.17,5.67,16.55,3.07,18.05-3.33,.03-.12-.07-.25-.21-.27-1.52-.32-3.04-.37-4.49-.15Z"/></g><g><path class="cls-2" d="M115.46,27.49c-2.14-1.35-4.31-2.01-6.79-1.93-2.03,0-4.17-.84-5.67-2.26-.12-.12-.32-.07-.32,.08-.02,5.69,8.65,11.13,13.29,7.46,.66-.42,1.36-.88,1.82-1.52,.05-.07,.02-.19-.06-.26-.75-.56-1.5-1.1-2.27-1.58Z"/><path class="cls-2" d="M106.29,24.1c1.66,.38,3.23,0,4.96,.28,2.67,.48,4.89,2.05,6.67,4.01,.11,.12,.29,.09,.32-.04,.19-.82,0-1.88-.83-3.33-2.3-5.73-11.62-6.96-14.55-2.56-.05,.08-.02,.21,.08,.27,1.06,.67,2.19,1.14,3.35,1.38Z"/></g><path class="cls-5" d="M106.34,85.31c-3.89,7.49,3.18,15.68,11.09,12.64,4.28-1.7,6.5-7.26,4.43-11.38-3.37-6.79-12.47-7.29-17.03-.64,0,0-.27-.12-.27-.12,.35-1.29,1.04-2.51,1.94-3.58,6.61-7.66,19.26-2.48,18.81,7.57-.2,4.36-3.01,8.59-7.21,9.99-5.42,1.9-11.99-1.18-13.24-6.9-.64-2.61-.27-5.49,1.23-7.73,0,0,.26,.16,.26,.16h0Z"/></g></svg>