<?xml version="1.0" encoding="UTF-8"?><svg id="Layer_2" xmlns="http://www.w3.org/2000/svg" viewBox="0 0 114.83 118.63"><defs><style>.cls-1{fill:#a37d42;}.cls-2{fill:#705842;}</style></defs><g id="Logo_Final"><path class="cls-2" d="M106.07,33.37c13.01,19.34,11.05,46.6-3.35,64.76-15.05,18.7-42.18,25.09-64.56,17.17-15.14-5.38-27.1-17.8-33.33-32.43-6.13-14.67-6.66-31.86-.15-46.51C18.17,6.55,53.27-8.69,83.54,5.16c13.95,6.33,25.58,17.62,31.3,31.86-6.85-13.16-18.83-23.45-32.61-28.69C54.09-2.77,22.58,11.64,10.75,39c-8.45,19.68-2.68,43.65,12.14,58.71,15.1,15.49,39.66,18.63,59.13,10.01,27.86-11.9,38.23-48.28,24.05-74.35h0Z"/><path class="cls-1" d="M89.82,23.65c16.16,11.79,22.85,34.32,16.73,53.27-8.52,26.1-41.11,40.71-66.15,29.13-18.6-8.24-31.86-27.94-30.81-48.48C11.18,29.67,34.44,6.74,62.81,8.3c13.17,.71,26.1,6.03,35.24,15.59-9.54-8.75-22.42-13.57-35.3-13.63-26.68-.52-48.17,21.21-49.37,47.47-.81,18.97,11.54,37.02,28.61,44.75,17.38,8.01,38.72,2.78,51.99-10.6,18.95-18.57,15.95-51.66-4.16-68.24h0Z"/><g><path class="cls-2" d="M78.17,43.2c-9.7,4.76-16.87,11.53-21.85,21.58-4.34,8.01-12.09,14.19-20.69,16.23-.7,.17-.94,1.06-.37,1.48,21.71,15.79,60.95-3.57,56.82-32.07-.21-3.78-.47-7.83-1.91-11.4-.17-.42-.68-.62-1.12-.46-3.74,1.42-7.41,2.89-10.88,4.64Z"/><path class="cls-2" d="M45.69,70.2c4.98-5.55,6.88-12.8,11.65-18.88,7.51-9.25,18.27-13.74,29.51-15.38,.68-.1,.97-.89,.51-1.39-2.75-3.01-7.18-5.23-14.48-5.91-26.79-6.69-51.35,26.82-40.77,50.61,.19,.44,.75,.63,1.19,.41,4.8-2.35,9-5.53,12.39-9.45Z"/></g></g></svg>