<?xml version="1.0" encoding="UTF-8"?><svg id="Layer_2" xmlns="http://www.w3.org/2000/svg" viewBox="0 0 145.3 23.32"><defs><style>.cls-1{fill:#794e1f;}</style></defs><g id="Layer_1-2"><g><path class="cls-1" d="M15.12,8.67c0,3.67-.88,6.22-2.62,7.65-.72,.57-1.49,.95-2.33,1.16-.83,.21-1.92,.31-3.27,.31H.42l-.22-1.38c1.27-.47,1.97-.71,2.1-.73,0-.05-.07-4.46-.22-13.23-.73-.18-1.43-.4-2.08-.65C.1,.96,.17,.45,.2,.3H6.83c1.63,0,2.94,.17,3.91,.5,.98,.33,1.84,.92,2.59,1.77,1.2,1.4,1.8,3.43,1.8,6.1Zm-4.21,5.33c.62-.92,.94-2.5,.94-4.75s-.35-3.89-1.05-4.91c-.7-1.02-1.87-1.54-3.5-1.54h-1.82c-.07,5.62-.11,9.81-.12,12.58h1.77c1.9,0,3.16-.46,3.79-1.38Z"/><path class="cls-1" d="M24.05,4.8c1.95,0,3.52,.6,4.71,1.79,1.19,1.19,1.79,2.85,1.79,4.98s-.59,3.75-1.77,4.86c-1.18,1.12-2.76,1.67-4.73,1.67s-3.54-.56-4.71-1.67c-1.18-1.12-1.76-2.74-1.76-4.86s.59-3.78,1.77-4.98c1.18-1.19,2.75-1.79,4.7-1.79Zm0,2c-.6,0-1.28,.15-2.05,.45-.22,.33-.42,.92-.61,1.76-.19,.84-.29,1.69-.29,2.54,0,1.57,.23,2.68,.7,3.34,.47,.66,1.22,.99,2.26,.99s1.8-.33,2.26-.99c.47-.66,.7-1.79,.7-3.4s-.24-2.79-.71-3.55c-.48-.76-1.23-1.14-2.26-1.14Z"/><path class="cls-1" d="M43.6,6.02c.75,.82,1.12,1.96,1.12,3.42s-.08,3.45-.25,5.95l1.98,.23c0,.68-.19,1.41-.58,2.17h-6.23l-.23-1.38c.78-.32,1.51-.57,2.18-.75-.05-1.92-.1-3.53-.15-4.84-.05-1.31-.18-2.2-.38-2.66-.2-.47-.64-.7-1.33-.7-1.03,0-1.96,.18-2.77,.55-.02,.72-.06,1.89-.14,3.51-.07,1.62-.12,2.91-.14,3.86l1.95,.23c0,.68-.19,1.41-.57,2.17h-6.23l-.23-1.38c.83-.32,1.58-.57,2.25-.75-.02-1-.07-2.38-.16-4.15-.09-1.77-.15-3.08-.16-3.93-.62-.07-1.27-.19-1.97-.38l.12-1.8c1.17-.32,2.48-.48,3.95-.48,.18,.12,.43,.48,.75,1.08,.57-.28,1.26-.56,2.08-.83,.82-.27,1.32-.4,1.5-.4,1.67,0,2.88,.41,3.62,1.23Z"/><path class="cls-1" d="M62.52,0c2.78,0,4.74,.73,5.88,2.19,1.13,1.46,1.7,3.69,1.7,6.69,0,1.88-.24,3.49-.73,4.82-.48,1.33-1.3,2.4-2.45,3.2-1.15,.8-2.62,1.2-4.4,1.2-2.72,0-4.69-.76-5.91-2.27-1.23-1.52-1.84-3.73-1.84-6.62,0-6.13,2.58-9.2,7.75-9.2Zm-1.06,18.65c.52,0,1.12,.09,1.79,.27,.67,.18,1.34,.42,2.02,.71,.68,.29,1.12,.46,1.3,.51,.78,.25,1.99,.38,3.62,.38-.07,.63-.17,1.18-.31,1.65-.14,.47-.33,.85-.56,1.15-1.25-.07-2.36-.28-3.32-.65-.27-.1-.75-.3-1.45-.61-.7-.31-1.32-.54-1.85-.7-.53-.16-1.04-.24-1.51-.24s-1.14,.1-2,.31c-.86,.21-1.3,.31-1.31,.31-.6-.52-.9-1.09-.9-1.73,1.02-.47,1.89-.81,2.61-1.04s1.35-.34,1.88-.34Zm1.06-3.2c2.77,0,4.15-2.12,4.15-6.38s-1.38-6.38-4.15-6.38c-1.2,0-2.25,.18-3.15,.55-.77,1.6-1.15,3.45-1.15,5.56s.32,3.74,.95,4.9c.63,1.16,1.75,1.74,3.35,1.74Z"/><path class="cls-1" d="M83.72,5c.32,0,.52,0,.6,.02,0,.85-.14,1.58-.43,2.2-.1,3.67-.18,6.38-.25,8.12,.75,.07,1.41,.19,1.98,.38l-.05,1.75c-1.02,.32-1.89,.48-2.62,.48s-1.23-.02-1.5-.05c-.2-.4-.37-.8-.5-1.2-1.38,.93-2.38,1.4-3,1.4-2.98,0-4.48-1.51-4.48-4.52,0-.82,.07-2.82,.2-6.02-.88,0-1.69-.12-2.42-.35,0-.42,.06-1.02,.17-1.8,.98-.27,2.67-.4,5.05-.4,.32,0,.52,0,.6,.02,0,.82-.14,1.57-.43,2.27v5.05c0,1.07,.11,1.85,.34,2.34,.23,.49,.71,.74,1.45,.74s1.5-.26,2.29-.77l-.15-7.1c-.73-.03-1.43-.15-2.08-.35,0-.42,.06-1.02,.17-1.8,.98-.27,2.67-.4,5.05-.4Z"/><path class="cls-1" d="M92.6,5c.32,0,.52,0,.6,.02,0,.82-.14,1.57-.43,2.27-.07,3.6-.11,6.3-.12,8.1l1.95,.23c0,.68-.19,1.41-.58,2.17h-6.23l-.22-1.38c1.03-.38,1.78-.63,2.25-.75l-.28-8.1c-.98-.1-1.71-.23-2.17-.38,0-.42,.06-1.02,.17-1.8,.98-.27,2.67-.4,5.05-.4Zm0-4.73c.15,.75,.23,1.32,.23,1.71s-.03,.83-.1,1.31c-.67,.15-1.23,.23-1.69,.23s-1.01-.02-1.66-.08c-.15-.75-.23-1.32-.23-1.71s.03-.83,.1-1.31c.67-.15,1.23-.23,1.69-.23s1.01,.02,1.66,.08Z"/><path class="cls-1" d="M108.85,5.1c.1,.18,.15,.35,.15,.51s-.02,.3-.05,.44c-.03,.13-.08,.28-.15,.45-.07,.17-.11,.28-.12,.35-.72,.23-1.48,.38-2.3,.45l-2.7,3.88,3.38,4.25c.6,0,1.27,.07,2,.2,0,.72-.14,1.44-.43,2.17h-6.75l-.2-1.3c.62-.33,1.27-.6,1.98-.8l-1.75-2.27-3.08,4.38h-3.85c-.12-.4-.17-.88-.17-1.42,.95-.45,1.88-.77,2.8-.95l2.83-3.85-3.2-4.02-2.35-.33c0-.68,.14-1.39,.43-2.12h6.75l.15,1.38c-.62,.32-1.19,.53-1.73,.62l1.7,2.2,3.1-4.2h3.57Z"/><path class="cls-1" d="M116.9,4.8c1.95,0,3.52,.6,4.71,1.79,1.19,1.19,1.79,2.85,1.79,4.98s-.59,3.75-1.77,4.86c-1.18,1.12-2.76,1.67-4.73,1.67s-3.54-.56-4.71-1.67c-1.18-1.12-1.76-2.74-1.76-4.86s.59-3.78,1.77-4.98c1.18-1.19,2.75-1.79,4.7-1.79Zm0,2c-.6,0-1.28,.15-2.05,.45-.22,.33-.42,.92-.61,1.76-.19,.84-.29,1.69-.29,2.54,0,1.57,.23,2.68,.7,3.34,.47,.66,1.22,.99,2.26,.99s1.8-.33,2.26-.99c.47-.66,.7-1.79,.7-3.4s-.24-2.79-.71-3.55c-.48-.76-1.23-1.14-2.26-1.14Z"/><path class="cls-1" d="M127.52,18.1l-.55-.02c-.1-.18-.23-.52-.4-1.02-.17-.5-.26-.88-.27-1.12-.08-1.65-.18-4.51-.28-8.58h-1.75l.08-1.42c.38-.27,.84-.51,1.38-.73l2.02-3.2c.65,.07,1.16,.24,1.52,.52l-.02,2.38c1.05,.03,2.02,.13,2.93,.3,0,.67-.21,1.38-.62,2.15h-2.33c-.07,3.5-.11,6.12-.12,7.88,.67,.07,1.58,.26,2.73,.58l-.02,1.3c-.28,.18-.91,.4-1.89,.64s-1.77,.36-2.39,.36Z"/><path class="cls-1" d="M140.6,15.65c.57,0,1.72-.39,3.45-1.18,.37,.53,.64,1.15,.83,1.85-.92,.57-1.81,1-2.69,1.31s-1.5,.46-1.86,.46c-2.02,0-3.55-.56-4.59-1.67-1.04-1.12-1.56-2.7-1.56-4.76s.52-3.72,1.55-4.97,2.57-1.89,4.6-1.89c1.62,0,2.85,.52,3.7,1.58,.85,1.05,1.27,2.42,1.27,4.1,0,.35-.2,.75-.6,1.2l-7.2-.12c.03,1.33,.28,2.35,.75,3.05,.47,.7,1.25,1.05,2.35,1.05Zm-.5-8.77c-.63,0-1.22,.12-1.77,.38-.38,.8-.62,1.54-.73,2.22,1.3-.05,2.78-.08,4.43-.1-.08-1.67-.73-2.5-1.93-2.5Z"/></g></g></svg>