<?xml version="1.0" encoding="UTF-8"?><svg id="Layer_2" xmlns="http://www.w3.org/2000/svg" viewBox="0 0 344.3 327.7"><defs><style>.cls-1{fill:#e67325;}.cls-2{fill:#273a90;}</style></defs><g id="Layer_1-2"><g id="Text"><g><path class="cls-2" d="M64.9,232.1v-2.8h6.2v12.9h-6.2c-1.8-4.7-4.9-7-9.2-7-2.1,0-4,.6-5.7,1.7-1.7,1.1-2.9,2.6-3.9,4.5-.9,1.9-1.4,4-1.4,6.4,0,2.2,.4,4.2,1.3,6,.9,1.8,2.1,3.3,3.6,4.3,1.6,1.1,3.4,1.6,5.4,1.6,2.5,0,4.7-.9,6.5-2.6,1.8-1.7,3.1-4,3.7-6.8l7.3,3.4c-2.7,8.5-8.8,12.8-18.2,12.8-4,0-7.6-.8-10.6-2.3s-5.3-3.7-7-6.6c-1.6-2.8-2.4-6.2-2.4-10,0-3.6,.8-6.8,2.5-9.7s4-5.1,6.9-6.8c3-1.6,6.3-2.5,9.9-2.5,4.7,0,8.4,1.2,11.3,3.5Z"/><path class="cls-2" d="M103.3,254.9h-19.1c.2,2,.9,3.5,2,4.7,1.2,1.1,2.7,1.7,4.5,1.7,2,0,4-1,6-3l6.3,2.1c-1.4,2.1-3.1,3.7-5.2,4.7-2.1,1.1-4.5,1.6-7.3,1.6s-5.3-.5-7.5-1.6-3.9-2.6-5.1-4.5-1.8-4.2-1.8-6.9,.6-5,1.9-7.1c1.2-2.1,2.9-3.8,5.1-5,2.1-1.2,4.4-1.8,6.9-1.8,2.7,0,5.1,.6,7.1,1.9,2,1.2,3.5,3,4.6,5.3,1,2.2,1.6,4.9,1.6,7.9Zm-13.8-9.7c-1.5,0-2.6,.4-3.5,1.3-.9,.8-1.4,2.1-1.7,3.9h10.7c-.2-1.5-.9-2.8-1.9-3.7-.9-1-2.2-1.5-3.6-1.5Z"/><path class="cls-2" d="M133.3,249.7v10.4h3.9v5.9h-12.1v-15.7c0-1.2-.2-2.1-.5-2.6-.4-.5-1-.8-1.8-.8-1.6,0-3.1,.6-4.7,1.7v11.5h4v5.9h-16v-5.9h3.9v-13.7h-3.9v-6h12v2.4c2.4-1.8,4.9-2.8,7.5-2.8s4.5,.8,5.8,2.4c1.2,1.7,1.9,4.1,1.9,7.3Z"/><path class="cls-2" d="M153.9,240.4v6h-4.7v11.2c0,.8,.2,1.4,.5,1.8,.3,.4,.9,.6,1.7,.6,.7,0,1.5-.2,2.5-.5v5.7c-2.2,.9-4.3,1.3-6.2,1.3-2.2,0-3.9-.6-5-1.7-1.1-1.1-1.7-2.7-1.7-4.8v-13.5h-3.2v-6h3.2v-4l8.2-5.9v9.8h4.7Z"/><path class="cls-2" d="M179,240.1v7.7c-2.2,.1-4,.5-5.4,1.1-1.3,.6-2.4,1.5-3.1,2.9-.7,1.4-1.1,3.3-1.1,5.9v2.5h5.1v5.9h-18v-5.9h4.7v-13.7h-4.5v-6h12v6.5c.6-2,1.7-3.6,3.3-4.9,1.6-1.3,3.6-2,6.1-2,.5-.1,.8-.1,.9,0Z"/><path class="cls-2" d="M205.4,250.6v9.5h4.2v5.9h-12.3v-2c-2.3,1.6-4.7,2.4-7,2.4-2.8,0-5.1-.7-6.8-2.2-1.7-1.4-2.5-3.4-2.5-5.9s.9-4.7,2.8-6.3c1.9-1.6,4.4-2.4,7.6-2.4,1.1,0,2.1,.1,2.9,.4,.9,.2,1.8,.6,3,1.2v-2.1c0-1.3-.4-2.3-1.2-3.1s-2-1.2-3.7-1.2c-1.8,0-3.3,.7-4.7,2.1l-6.6-1.2c2-4,6.1-6.1,12.4-6.1,4.3,0,7.4,.9,9.2,2.6,1.8,2,2.7,4.7,2.7,8.4Zm-13.3,10.7c1.5,0,3.2-.9,5.2-2.6v-2.3c-1.8-1.1-3.4-1.7-4.8-1.7-1.2,0-2.1,.3-2.7,.8-.6,.6-.9,1.3-.9,2.4-.1,2.3,1,3.4,3.2,3.4Z"/><path class="cls-2" d="M227.6,260.1v5.9h-15.8v-5.9h4v-25h-4v-5.9h12.2v30.9h3.6Z"/><path class="cls-2" d="M277.4,240.9c0,4-1.2,7-3.7,8.8-2.5,1.9-6.4,2.8-11.7,2.8h-3.9v7.2h5.2v6.2h-19.4v-6.2h4.6v-24.2h-4.6v-6.2h17.9c5.3,0,9.2,1,11.7,2.9,2.6,1.8,3.9,4.8,3.9,8.7Zm-10.1,0c0-1.5-.3-2.7-.9-3.5-.6-.8-1.5-1.3-2.7-1.6-1.2-.2-2.5-.4-4-.4h-1.6v11h1.5c2,0,3.6-.2,4.7-.6,1.1-.4,1.9-1,2.3-1.8,.5-.7,.7-1.8,.7-3.1Z"/><path class="cls-2" d="M300.4,235.5l7.7,24.3h4.4v6.2h-18.1v-6.2h4.7l-1.8-6.2h-9.5l-2,6.2h4.9v6.2h-16.3v-6.2h4.5l7.2-24.3h-4.9v-6.2h24.1v6.2h-4.9Zm-7.6,1.5l-3.3,11.1h6.4l-3.1-11.1Z"/><path class="cls-2" d="M92.1,285l-6.1,26.3c-.7,2.9-1.5,5.5-2.4,7.6-1,2.2-2.5,4.1-4.8,5.9-2.2,1.7-5.2,2.6-9.1,2.6-1.7,0-3.5-.3-5.5-.9l1.8-6.1c.8,.1,1.5,.2,2.2,.2,1.7,0,3-.3,4.1-.9,1-.6,1.9-1.8,2.7-3.4,.7-1.7,1.5-4.1,2.2-7.3l5.6-24h-4.9l1.4-5.7h18.2l-1.3,5.7h-4.1Z"/><path class="cls-2" d="M120.5,301c0,2.9-.7,5.6-2.1,8-1.4,2.4-3.3,4.3-5.7,5.7s-5,2.1-7.9,2.1c-2.2,0-4.1-.4-5.8-1.3-1.7-.9-3-2.1-4-3.7s-1.4-3.5-1.4-5.6c0-2.9,.7-5.6,2-8.1s3.2-4.5,5.6-6c2.4-1.5,5.2-2.2,8.2-2.2,2.1,0,4,.5,5.7,1.4s3,2.3,4,4c.9,1.5,1.4,3.5,1.4,5.7Zm-15.2,10c1.5,0,2.8-.6,3.9-1.7,1.1-1.2,1.9-2.6,2.5-4.3s.8-3.3,.8-4.8c0-1.4-.3-2.5-1-3.4s-1.6-1.3-2.9-1.3c-1.6,0-2.9,.6-3.9,1.8-1.1,1.2-1.9,2.6-2.4,4.3s-.8,3.3-.8,4.8c0,1.4,.3,2.5,1,3.4,.7,.8,1.6,1.2,2.8,1.2Z"/><path class="cls-2" d="M133.4,308.1c0,1.3,.5,2,1.6,2,.8,0,1.8-.3,3-.9,1.1-.6,2.2-1.3,3.1-2.1l2.6-11.2h-3.5l1.3-5.5h11.4l-4.7,20.2h3.4l-1.3,5.4h-11.3l.8-3.3c-3.6,2.4-6.6,3.6-9.2,3.6-1.5,0-2.8-.5-3.9-1.6-1.1-1-1.6-2.3-1.6-3.7,0-1.2,.2-2.8,.7-4.8l2.4-10.3h-3.4l1.3-5.5h11.3l-3.9,16.6c-.1,.4-.1,.8-.1,1.1Z"/><path class="cls-2" d="M180.8,290.4l-1.5,6.9c-.9-.2-1.7-.3-2.4-.3-4.3,0-7,2.8-8.2,8.3l-1.2,5.3h4l-1.2,5.4h-14.9l1.2-5.4h3.1l3.4-14.7h-3.5l1.2-5.5h10.4l-1.8,7.5,.1,.1c1.5-2.9,2.9-4.9,4.3-6.1,1.4-1.1,2.9-1.7,4.8-1.7,.6-.1,1.3,0,2.2,.2Z"/><path class="cls-2" d="M210.5,296.1c0,.5,0,1-.1,1.6-.1,.5-.3,1.3-.5,2.3l-2.4,10.6h3.5l-1.2,5.4h-11.4l3.8-16.2c.1-.7,.2-1.1,.2-1.4,0-.7-.2-1.2-.5-1.6-.3-.4-.8-.6-1.4-.6-1.3,0-3.2,1-5.8,2.9l-2.7,11.5h3.2l-1.2,5.4h-13.9l1.2-5.4h2.8l3.4-14.7h-3.9l1.2-5.5h11.7l-.8,3.2c1.8-1.3,3.3-2.2,4.7-2.7s2.9-.8,4.7-.8c1.6,0,2.9,.5,3.9,1.6,1,1.1,1.5,2.6,1.5,4.4Z"/><path class="cls-2" d="M241.9,301.2c0,1.2-.1,2.4-.4,3.6h-18.2c-.1,.5-.2,1.1-.2,1.7,0,1.5,.4,2.8,1.3,3.7,.9,1,2,1.5,3.5,1.5,2.2,0,3.9-1.1,5.2-3.3l5.8,2.6c-1.3,2-2.9,3.4-4.9,4.4s-4.2,1.4-6.6,1.4c-3.6,0-6.4-1-8.5-3s-3.2-4.7-3.2-8.1c0-2.8,.6-5.4,1.8-7.9s2.9-4.4,5.2-5.9,4.9-2.2,7.8-2.2c2.2,0,4.2,.5,5.9,1.4s3.1,2.3,4,4c1,1.8,1.5,3.8,1.5,6.1Zm-7.4-1.8c0-1.4-.4-2.5-1-3.3-.7-.8-1.7-1.2-3-1.2-3,0-5.1,1.9-6.2,5.7h10.2v-1.2Z"/><path class="cls-2" d="M254.6,295.9l1.5,12,7-12h-3.1l1.2-5.5h13.4l-1.2,5.5h-3.5l-18.4,31.8h-9.1l1.2-5.4h4.2l3.1-5.4-3.9-20.9h-2.8l1.3-5.5h13.4l-1.3,5.5h-3v-.1Z"/></g></g><g id="Layer_3"><g><path class="cls-1" d="M321,119.9l20.3-53.6-45.1-48.3H57.9V0L.2,18l-.2,178.4H123.4c-2.1-7-3.2-14.3-3.2-21.9,0-42.5,34.5-77,77-77s77,34.5,77,77c0,7.6-1.1,15-3.2,21.9h29.3l44-30.1-23.3-46.4Z"/><path class="cls-1" d="M251.7,174.4c0-30.1-24.4-54.5-54.5-54.5s-54.5,24.4-54.5,54.5c0,7.8,1.7,15.2,4.6,21.9h99.8c2.9-6.6,4.6-14,4.6-21.9Z"/></g></g></g></svg>