<?xml version="1.0" encoding="utf-8"?>
<!-- Generator: Adobe Illustrator 26.5.0, SVG Export Plug-In . SVG Version: 6.00 Build 0)  -->
<svg version="1.1" id="Layer_2_00000080208845836302348080000009767671380506765707_"
	 xmlns="http://www.w3.org/2000/svg" xmlns:xlink="http://www.w3.org/1999/xlink" x="0px" y="0px" viewBox="0 0 420.9 145.2"
	 style="enable-background:new 0 0 420.9 145.2;" xml:space="preserve">
<style type="text/css">
	.st0{fill:#B22B46;}
	.st1{fill:#D6A521;stroke:#FFFFFF;stroke-width:0.75;stroke-miterlimit:10;}
	.st2{fill:#D6A521;}
	.st3{fill:#FFFFFF;}
	.st4{fill:#D6A521;stroke:#FFFFFF;stroke-width:3.58;stroke-miterlimit:10;}
</style>
<g>
	<path class="st0" d="M146.3,89.8c0,0.8-0.2,1.5-0.6,2.1c-0.4,0.6-0.9,1.1-1.4,1.4c-0.9-0.6-1.9-1.1-3-1.6c-1.1-0.5-2.5-0.7-4-0.7
		c-1.9,0-3.5,0.4-4.9,1.2s-2.5,2-3.2,3.6s-1.1,3.5-1.1,5.7c0,3.4,0.9,6,2.6,7.8c1.7,1.8,4.1,2.7,7.1,2.7c1.5,0,2.9-0.2,4-0.6
		s2.1-0.9,3.1-1.4c0.5,0.4,1,0.9,1.3,1.5c0.3,0.6,0.5,1.3,0.5,2.2c0,0.7-0.2,1.4-0.6,2c-0.4,0.6-1,1.1-1.9,1.6
		c-0.7,0.4-1.6,0.7-2.9,1s-2.8,0.5-4.6,0.5c-3.1,0-6-0.6-8.6-1.8c-2.6-1.2-4.6-3.1-6.1-5.6c-1.5-2.5-2.2-5.7-2.2-9.7
		c0-3.7,0.7-6.8,2.2-9.4s3.5-4.5,6-5.8c2.5-1.3,5.3-2,8.3-2c2.1,0,3.9,0.2,5.5,0.7c1.5,0.5,2.7,1.1,3.5,1.9
		C145.9,87.8,146.3,88.8,146.3,89.8L146.3,89.8z"/>
	<path class="st0" d="M159.4,107.8h-7.9V83c0.3-0.1,0.8-0.2,1.4-0.3c0.6-0.1,1.3-0.2,2.1-0.2c1.5,0,2.6,0.3,3.4,0.8
		c0.7,0.5,1,1.5,1,2.9C159.4,86.2,159.4,107.8,159.4,107.8z M151.5,103.7h7.9v14.1c-0.4,0.1-0.9,0.2-1.5,0.3
		c-0.6,0.1-1.3,0.1-2.1,0.1c-1.5,0-2.6-0.3-3.3-0.8s-1-1.5-1-2.9C151.5,114.5,151.5,103.7,151.5,103.7z M176.1,106.9h-8v-4.8
		c0-1.6-0.4-2.8-1.3-3.5c-0.8-0.7-1.9-1-3.2-1c-1.1,0-2.2,0.2-3.1,0.6s-1.7,0.9-2.3,1.4l-0.2-6.4c0.8-0.5,1.8-0.9,3.1-1.3
		c1.2-0.4,2.6-0.6,4-0.6c3.4,0,6.1,0.9,8,2.6c2,1.7,2.9,4.3,2.9,7.8L176.1,106.9L176.1,106.9z M168.1,103.7h8v14.1
		c-0.4,0.1-0.9,0.2-1.5,0.3c-0.6,0.1-1.3,0.1-2.1,0.1c-1.5,0-2.6-0.3-3.4-0.8s-1-1.5-1-2.9C168.1,114.5,168.1,103.7,168.1,103.7z"/>
	<path class="st0" d="M185.9,108.7l-0.3-5.4l13.3-2.1c-0.1-1-0.5-1.9-1.3-2.8s-1.9-1.3-3.5-1.3s-2.9,0.5-4,1.6s-1.6,2.6-1.7,4.6
		l0.3,3.7c0.3,2,1.2,3.4,2.5,4.2s3,1.3,4.8,1.3c1.5,0,2.9-0.2,4.2-0.6c1.3-0.4,2.4-0.9,3.2-1.3c0.5,0.3,1,0.8,1.3,1.3
		s0.5,1.2,0.5,1.8c0,1.1-0.4,2-1.3,2.7c-0.8,0.7-2,1.2-3.5,1.6s-3.2,0.5-5.1,0.5c-2.8,0-5.2-0.5-7.4-1.6s-3.9-2.6-5.2-4.7
		s-1.9-4.7-1.9-7.8c0-2.3,0.4-4.3,1.1-5.9c0.7-1.7,1.7-3.1,2.9-4.2c1.2-1.1,2.6-1.9,4.2-2.4c1.6-0.5,3.2-0.8,4.9-0.8
		c2.5,0,4.6,0.5,6.5,1.5c1.8,1,3.3,2.3,4.3,4c1,1.7,1.6,3.6,1.6,5.8c0,1.1-0.3,1.9-0.9,2.5s-1.4,0.9-2.5,1.1L185.9,108.7
		L185.9,108.7z"/>
	<path class="st0" d="M215,108.7l-0.3-5.4l13.3-2.1c-0.1-1-0.5-1.9-1.3-2.8s-1.9-1.3-3.5-1.3s-2.9,0.5-4,1.6s-1.6,2.6-1.7,4.6
		l0.3,3.7c0.3,2,1.2,3.4,2.5,4.2s3,1.3,4.8,1.3c1.5,0,2.9-0.2,4.2-0.6c1.3-0.4,2.4-0.9,3.2-1.3c0.5,0.3,1,0.8,1.3,1.3
		s0.5,1.2,0.5,1.8c0,1.1-0.4,2-1.3,2.7c-0.8,0.7-2,1.2-3.5,1.6s-3.2,0.5-5.1,0.5c-2.8,0-5.2-0.5-7.4-1.6s-3.9-2.6-5.2-4.7
		s-1.9-4.7-1.9-7.8c0-2.3,0.4-4.3,1.1-5.9c0.7-1.7,1.7-3.1,2.9-4.2c1.2-1.1,2.6-1.9,4.2-2.4c1.6-0.5,3.2-0.8,4.9-0.8
		c2.5,0,4.6,0.5,6.5,1.5c1.8,1,3.3,2.3,4.3,4c1,1.7,1.6,3.6,1.6,5.8c0,1.1-0.3,1.9-0.9,2.5s-1.4,0.9-2.5,1.1L215,108.7L215,108.7z"
		/>
	<path class="st0" d="M261.2,110.3c0,2.6-1,4.7-3,6.1c-2,1.5-4.8,2.2-8.6,2.2c-2.9,0-5.3-0.4-7.2-1.3s-2.8-2.1-2.8-3.8
		c0-0.8,0.2-1.4,0.5-2c0.3-0.6,0.7-1,1.2-1.3c1,0.6,2.2,1.1,3.5,1.6s2.9,0.7,4.6,0.7c2.6,0,3.9-0.8,3.9-2.2c0-0.6-0.2-1.2-0.7-1.5
		c-0.5-0.4-1.2-0.7-2.3-0.8l-2.2-0.5c-2.9-0.6-5-1.5-6.4-2.8c-1.4-1.3-2.1-3-2.1-5.2c0-2.5,1-4.5,3-6s4.7-2.2,8.2-2.2
		c1.7,0,3.3,0.2,4.7,0.5c1.4,0.3,2.5,0.9,3.4,1.6c0.8,0.7,1.2,1.6,1.2,2.6c0,0.7-0.1,1.3-0.4,1.9c-0.3,0.5-0.7,1-1.1,1.3
		c-0.4-0.2-1-0.5-1.8-0.8c-0.8-0.3-1.7-0.5-2.6-0.7c-0.9-0.2-1.8-0.3-2.6-0.3c-1.3,0-2.3,0.2-3,0.5c-0.7,0.3-1.1,0.9-1.1,1.6
		c0,0.5,0.2,0.9,0.6,1.2c0.4,0.3,1.1,0.6,2.2,0.8l2.1,0.5c3.2,0.7,5.5,1.7,6.9,3.1C260.5,106.5,261.2,108.2,261.2,110.3L261.2,110.3
		z"/>
	<path class="st0" d="M269.6,111.5c-0.6-1.2-1.2-2.6-1.9-4.3s-1.4-3.7-2.1-5.9c-0.7-2.3-1.5-4.9-2.3-7.9c0.5-0.5,1.1-0.9,1.8-1.2
		s1.5-0.5,2.4-0.5c1.1,0,2,0.2,2.7,0.7c0.7,0.5,1.2,1.3,1.6,2.6c0.8,2.6,1.6,5.2,2.5,7.8c0.8,2.6,1.7,5.2,2.5,7.8h0.2
		c0.6-1.6,1.2-3.4,1.9-5.5c0.6-2,1.2-4.1,1.7-6.3c0.5-2.2,1-4.2,1.4-6.2c0.5-0.2,1-0.5,1.6-0.6c0.6-0.2,1.2-0.2,1.8-0.2
		c1.1,0,2.1,0.2,2.9,0.7s1.2,1.3,1.2,2.4c0,1-0.1,2.2-0.5,3.7c-0.3,1.5-0.7,3.1-1.2,4.7c-0.5,1.7-1.1,3.4-1.8,5.2s-1.4,3.5-2.1,5.1
		c-0.7,1.6-1.5,3.1-2.2,4.4c-1.9,3.4-3.7,5.9-5.3,7.5c-1.6,1.7-3.2,2.5-4.9,2.5c-1.3,0-2.4-0.4-3.2-1.2s-1.4-1.8-1.5-3
		c0.8-0.6,1.6-1.4,2.4-2.2c0.8-0.8,1.6-1.7,2.4-2.7s1.4-1.9,2-2.8c-0.6-0.2-1.2-0.6-1.9-1.2C271.1,114.3,270.4,113.1,269.6,111.5
		L269.6,111.5z"/>
	<path class="st0" d="M330.6,89.8c0,0.8-0.2,1.5-0.6,2.1c-0.4,0.6-0.9,1.1-1.5,1.4c-0.9-0.6-1.9-1.1-3-1.6c-1.1-0.5-2.5-0.7-4-0.7
		c-1.9,0-3.5,0.4-4.9,1.2c-1.4,0.8-2.5,2-3.2,3.6s-1.1,3.5-1.1,5.7c0,3.4,0.9,6,2.6,7.8c1.7,1.8,4.1,2.7,7.1,2.7
		c1.5,0,2.9-0.2,4-0.6s2.1-0.9,3-1.4c0.5,0.4,1,0.9,1.3,1.5c0.3,0.6,0.5,1.3,0.5,2.2c0,0.7-0.2,1.4-0.6,2c-0.4,0.6-1,1.1-1.9,1.6
		c-0.7,0.4-1.6,0.7-2.9,1s-2.8,0.5-4.5,0.5c-3.1,0-6-0.6-8.6-1.8c-2.6-1.2-4.6-3.1-6.1-5.6c-1.5-2.5-2.2-5.7-2.2-9.7
		c0-3.7,0.7-6.8,2.2-9.4s3.5-4.5,6-5.8s5.3-2,8.3-2c2.1,0,3.9,0.2,5.5,0.7c1.5,0.5,2.7,1.1,3.5,1.9
		C330.1,87.8,330.6,88.8,330.6,89.8L330.6,89.8z"/>
	<path class="st0" d="M360.7,105c0,2.8-0.6,5.2-1.7,7.3c-1.1,2.1-2.7,3.6-4.7,4.7s-4.4,1.7-7.2,1.7s-5.1-0.5-7.2-1.6
		s-3.6-2.7-4.7-4.7c-1.1-2.1-1.7-4.5-1.7-7.3s0.6-5.2,1.7-7.2c1.1-2,2.7-3.6,4.8-4.7c2-1.1,4.4-1.7,7.1-1.7s5.1,0.6,7.1,1.7
		c2,1.1,3.6,2.7,4.7,4.8C360.2,99.8,360.7,102.2,360.7,105L360.7,105z M347.1,97.6c-1.7,0-3,0.6-4,1.9c-1,1.3-1.5,3.1-1.5,5.5
		s0.5,4.2,1.5,5.5c1,1.3,2.3,1.9,4,1.9s3-0.6,4-1.9c1-1.3,1.5-3.1,1.5-5.5s-0.5-4.1-1.5-5.4C350.2,98.2,348.9,97.6,347.1,97.6
		L347.1,97.6z"/>
	<path class="st0" d="M391.7,105c0,2.8-0.6,5.2-1.7,7.3c-1.1,2.1-2.7,3.6-4.7,4.7s-4.4,1.7-7.2,1.7s-5.1-0.5-7.2-1.6
		s-3.6-2.7-4.7-4.7c-1.1-2.1-1.7-4.5-1.7-7.3s0.6-5.2,1.7-7.2c1.1-2,2.7-3.6,4.8-4.7c2-1.1,4.4-1.7,7.1-1.7s5.1,0.6,7.1,1.7
		c2,1.1,3.6,2.7,4.7,4.8C391.1,99.8,391.7,102.2,391.7,105L391.7,105z M378.1,97.6c-1.7,0-3,0.6-4,1.9c-1,1.3-1.5,3.1-1.5,5.5
		s0.5,4.2,1.5,5.5c1,1.3,2.3,1.9,4,1.9s3-0.6,4-1.9c1-1.3,1.5-3.1,1.5-5.5s-0.5-4.1-1.5-5.4C381.2,98.2,379.8,97.6,378.1,97.6
		L378.1,97.6z"/>
	<path class="st0" d="M404.7,107.9l-7.9-0.2V82.9c0.3-0.1,0.8-0.2,1.5-0.3c0.6-0.1,1.3-0.2,2.1-0.2c1.5,0,2.6,0.3,3.4,0.8
		c0.7,0.5,1,1.5,1,2.9L404.7,107.9L404.7,107.9z M396.8,103.6l7.9,0.2v14c-0.4,0.1-0.9,0.2-1.5,0.3c-0.6,0.1-1.3,0.1-2.1,0.1
		c-1.5,0-2.6-0.3-3.3-0.8s-1-1.5-1-2.9V103.6z M408.2,107.5l-5.7-3.6l12.1-12.2c1.6,0,2.9,0.4,3.9,1.1c1,0.7,1.5,1.6,1.5,2.7
		c0,0.9-0.3,1.8-1,2.5c-0.6,0.7-1.6,1.7-3,2.8L408.2,107.5L408.2,107.5z M402.8,105l6.3-2.8l11.8,11.5c-0.1,1.4-0.6,2.6-1.3,3.3
		c-0.7,0.8-1.7,1.2-3,1.2c-1,0-1.9-0.2-2.6-0.7s-1.6-1.3-2.5-2.4L402.8,105L402.8,105z"/>
</g>
<path class="st1" d="M15.8,112.4C16.4-5.1,61.1,76.1,88.9,1.9c2.1,47.5,0.9,78.6,11.8,120.8c-21.3-7.7-34.4,8.3-50.2,12.1
	c-9,2.1-40.8,4.8-50.2,10.1C9.1,137.4,14,125.3,15.8,112.4L15.8,112.4z"/>
<g>
	<path class="st2" d="M26.5,117.8c0,0,9.3-14.5,29.9-4.7"/>
	<path class="st3" d="M26.5,117.8c1.7-5.9,7.7-9.8,13.6-10.4c4.5-0.4,9,0.7,12.8,3c4.2,3.1,4.4,3.1-0.8,2.3
		C42.7,111.5,34.6,112.2,26.5,117.8C26.4,117.8,26.4,117.8,26.5,117.8z"/>
</g>
<g>
	<path class="st2" d="M73.3,103.1c0,0-10.5-13.7,5.8-29.7"/>
	<path class="st3" d="M73.3,103.1c-5-3.6-6.6-10.6-5.2-16.4c1.1-4.4,3.7-8.3,7.2-11.1c4.3-2.9,4.4-3.1,1.9,1.6
		C72.8,85.6,70.7,93.5,73.3,103.1C73.3,103.1,73.3,103.1,73.3,103.1z"/>
</g>
<g>
	<path class="st4" d="M89,24.6c81.3-21.9,33.7,24.4,90.3,29.5c-32.4,10.5-54.1,15.6-81.2,31.1C99.3,69,85.8,63.1,80.2,52.8
		C77,47,69.2,25.6,63.6,20.1C70.5,24.8,79.8,25.9,89,24.6L89,24.6z"/>
	<g>
		<path class="st2" d="M86.3,40.8c0,0,12.6-0.8,15.7,16.5"/>
		<path class="st3" d="M86.3,40.8c9.3-1.6,16,7.9,15.7,16.5c-1.2-2.8-2.2-5.7-3.9-8.2C95.5,44.8,91.3,41.8,86.3,40.8
			C86.3,40.8,86.3,40.8,86.3,40.8z"/>
	</g>
	<g>
		<path class="st2" d="M115.3,63.2c0,0,3.6-12.8,20-9.9"/>
		<path class="st3" d="M115.3,63.2c1.4-9.2,11.9-13.1,20-9.9c-1.5,0.1-3.1,0.1-4.6,0.3C124.3,54,118.5,57.3,115.3,63.2L115.3,63.2
			L115.3,63.2z"/>
	</g>
</g>
</svg>
